<?xml version="1.0" encoding="UTF-8" standalone="no"?>
<!-- Created with Inkscape (http://www.inkscape.org/) -->

<svg
   width="12.607188mm"
   height="10.02016mm"
   viewBox="0 0 12.607188 10.02016"
   version="1.1"
   id="svg8993"
   inkscape:version="1.1.2 (0a00cf5339, 2022-02-04)"
   sodipodi:docname="chmurka.svg"
   xmlns:inkscape="http://www.inkscape.org/namespaces/inkscape"
   xmlns:sodipodi="http://sodipodi.sourceforge.net/DTD/sodipodi-0.dtd"
   xmlns="http://www.w3.org/2000/svg"
   xmlns:svg="http://www.w3.org/2000/svg">
  <sodipodi:namedview
     id="namedview8995"
     pagecolor="#ffffff"
     bordercolor="#666666"
     borderopacity="1.0"
     inkscape:pageshadow="2"
     inkscape:pageopacity="0.0"
     inkscape:pagecheckerboard="0"
     inkscape:document-units="mm"
     showgrid="false"
     fit-margin-top="0"
     fit-margin-left="0"
     fit-margin-right="0"
     fit-margin-bottom="0"
     inkscape:zoom="0.69664703"
     inkscape:cx="-508.86602"
     inkscape:cy="-101.19902"
     inkscape:window-width="1846"
     inkscape:window-height="1016"
     inkscape:window-x="0"
     inkscape:window-y="0"
     inkscape:window-maximized="1"
     inkscape:current-layer="layer1" />
  <defs
     id="defs8990" />
  <g
     inkscape:label="Warstwa 1"
     inkscape:groupmode="layer"
     id="layer1"
     transform="translate(-85.012737,-114.25852)">
    <path
       style="fill:#000000;stroke-width:0.0144088"
       d="m 88.226641,120.73895 c -0.570827,-0.006 -1.089347,-0.0162 -1.152271,-0.0217 -0.192072,-0.0217 -0.377012,-0.0692 -0.358051,-0.093 0.0045,-0.006 -0.01203,-0.0108 -0.03694,-0.0108 -0.06573,0 -0.25604,-0.0592 -0.394921,-0.123 -0.0659,-0.0303 -0.123514,-0.0549 -0.127992,-0.0549 -0.02857,0 -0.298621,-0.17004 -0.418073,-0.2633 -0.147216,-0.1149 -0.339255,-0.30992 -0.339255,-0.34463 0,-0.0108 0.0382,0.0135 0.08498,0.0559 0.103508,0.0919 0.219607,0.17977 0.274593,0.20708 0.02239,0.0108 0.08498,0.0454 0.138933,0.076 0.05389,0.0305 0.144166,0.0716 0.200552,0.0916 0.05636,0.0189 0.12371,0.0479 0.149622,0.0622 0.02603,0.0135 0.05339,0.027 0.06095,0.027 0.01539,-8e-5 -0.07807,-0.0622 -0.09453,-0.063 -0.01455,-6.1e-4 -0.167336,-0.0735 -0.283917,-0.13543 -0.05389,-0.0287 -0.121724,-0.0614 -0.150602,-0.073 -0.03792,-0.0162 -0.04967,-0.027 -0.04214,-0.0422 0.0078,-0.0162 0.0036,-0.0189 -0.01595,-0.0135 -0.01875,0.006 -0.03775,-0.008 -0.06671,-0.0454 -0.02211,-0.0292 -0.08126,-0.0881 -0.13121,-0.13112 -0.04989,-0.0427 -0.08683,-0.0808 -0.08199,-0.0846 0.02183,-0.0162 -0.100961,-0.16166 -0.137367,-0.16166 -0.01427,0 -0.01931,-0.008 -0.01343,-0.0189 0.0053,-0.0108 -0.0207,-0.0665 -0.05775,-0.12382 -0.149426,-0.23087 -0.202118,-0.41453 -0.218376,-0.76091 -0.01063,-0.22763 0.01931,-0.41356 0.103508,-0.63894 0.07642,-0.20492 0.244456,-0.46265 0.379233,-0.58166 0.05826,-0.0514 0.07552,-0.0592 0.143271,-0.0633 l 0.07701,-0.006 -0.07762,-0.002 c -0.04264,-0.001 -0.07762,-0.008 -0.07762,-0.0135 0,-0.0244 0.344236,-0.27272 0.477813,-0.34336 0.147412,-0.0778 0.580733,-0.25492 0.624198,-0.25492 0.04043,0 0.05605,-0.0397 0.07558,-0.19194 0.01035,-0.0797 0.02406,-0.15058 0.03081,-0.15734 0.0067,-0.008 0.01371,-0.0408 0.01567,-0.0749 0.0022,-0.0344 0.01875,-0.097 0.03761,-0.13976 0.04561,-0.10354 0.21527,-0.36677 0.287334,-0.44584 0.07382,-0.0811 0.390166,-0.33267 0.448219,-0.35658 0.02714,-0.0108 0.09301,-0.0189 0.171616,-0.0189 0.07012,-1.1e-4 0.138515,-0.006 0.152002,-0.0135 0.01707,-0.008 -0.01847,-0.0135 -0.114393,-0.0135 l -0.138933,-3.8e-4 0.04089,-0.027 c 0.06405,-0.0403 0.421767,-0.17383 0.539352,-0.2014 0.318487,-0.0746 0.721329,-0.0876 1.020152,-0.0327 0.289262,0.0532 0.449168,0.10272 0.670495,0.20788 l 0.09707,0.0463 -0.121612,0.006 c -0.111539,0.006 -0.116184,0.008 -0.05619,0.0162 0.09497,0.0135 0.437048,0.0108 0.465803,-0.002 0.02099,-0.0108 0.02042,-0.0135 -0.0045,-0.0135 -0.01567,-1e-4 -0.02857,-0.002 -0.02857,-0.008 0,-0.002 0.03333,-0.0462 0.07412,-0.0941 0.145034,-0.17113 0.593986,-0.50545 0.747946,-0.55701 0.02519,-0.008 0.07292,-0.0162 0.106222,-0.0162 l 0.0605,-0.002 -0.06536,-0.008 -0.06536,-0.008 0.05723,-0.0335 c 0.0727,-0.0427 0.424092,-0.17924 0.58667,-0.22816 0.294357,-0.0884 0.76998,-0.16383 1.030679,-0.16383 0.227246,0 0.685517,0.0668 0.968241,0.14084 0.125361,0.033 0.610184,0.216 0.6669,0.25196 l 0.04088,0.027 -0.130763,0.002 c -0.154911,0.002 -0.09788,0.0189 0.07138,0.0217 0.09299,10e-4 0.112938,0.006 0.187567,0.0492 0.125726,0.0716 0.319203,0.20438 0.412366,0.28275 0.132217,0.11138 0.330381,0.3244 0.313659,0.3374 -0.0036,0.002 -0.03526,0.0108 -0.07063,0.0162 l -0.06441,0.0108 0.07681,0.001 c 0.06662,10e-4 0.0821,0.006 0.116855,0.0427 0.134987,0.13922 0.29221,0.4616 0.376196,0.77167 0.01427,0.0524 0.03059,0.17815 0.03629,0.27931 0.0059,0.1011 0.01679,0.19707 0.02462,0.21275 0.0081,0.0162 0.04651,0.0403 0.09209,0.0563 0.305723,0.10732 0.556833,0.2087 0.681772,0.27515 0.135296,0.0719 0.483144,0.32159 0.483144,0.34686 0,0.006 -0.03495,0.0108 -0.07762,0.0135 l -0.07762,0.002 0.08386,0.008 c 0.07382,0.006 0.09089,0.0135 0.14285,0.0624 0.07242,0.0676 0.22512,0.27523 0.288204,0.39198 0.06936,0.12841 0.128664,0.29618 0.165097,0.46755 0.02658,0.12489 0.03072,0.18788 0.02322,0.34933 -0.0207,0.43929 -0.07676,0.5939 -0.337719,0.93006 -0.05272,0.0679 -0.09581,0.13003 -0.09581,0.13841 0,0.0327 -0.331425,0.32032 -0.418628,0.36311 -0.02813,0.0135 -0.02834,0.0162 -0.0022,0.0162 0.01567,3.7e-4 0.02857,0.008 0.02857,0.0135 0,0.008 0.02267,-0.002 0.05029,-0.0216 0.101688,-0.0727 0.227582,-0.17004 0.227582,-0.17571 0,-0.002 0.02575,-0.027 0.05722,-0.0516 0.03145,-0.0243 0.05722,-0.0497 0.05722,-0.0543 0,-0.0135 0.08104,-0.0781 0.09718,-0.0781 0.02183,0 -7.39e-4,0.0522 -0.02603,0.0595 -0.01232,0.002 -0.02211,0.0162 -0.02211,0.0292 0,0.0135 -0.01091,0.0295 -0.02462,0.0384 -0.01343,0.008 -0.02462,0.0243 -0.02462,0.0332 0,0.0108 -0.01091,0.0162 -0.02462,0.0162 -0.01343,0 -0.02462,0.008 -0.02462,0.0189 0,0.0108 -0.0092,0.0217 -0.02043,0.0287 -0.02378,0.0108 -0.05821,0.0516 -0.0718,0.0833 -0.0053,0.0135 -0.01986,0.0216 -0.03221,0.0216 -0.01231,0 -0.02267,0.008 -0.02267,0.0189 0,0.0108 -0.01091,0.0189 -0.02462,0.0189 -0.01343,0 -0.02462,0.008 -0.02462,0.0189 0,0.0108 -0.01091,0.0189 -0.02462,0.0189 -0.01343,0 -0.02462,0.008 -0.02462,0.0189 0,0.0108 -0.01091,0.0189 -0.02462,0.0189 -0.01343,0 -0.02462,0.008 -0.02462,0.0189 0,0.0108 -0.01148,0.0189 -0.02519,0.0189 -0.01931,0 -0.02155,0.006 -0.0095,0.0216 0.01147,0.0162 0.0067,0.0316 -0.01735,0.0579 -0.01819,0.0189 -0.0368,0.033 -0.04138,0.0295 -0.0045,-0.002 0.0045,-0.0162 0.01931,-0.0281 0.02239,-0.0162 0.02351,-0.0244 0.0059,-0.0319 -0.01315,-0.006 -0.02806,-0.002 -0.03805,0.006 -0.009,0.008 -0.03251,0.0216 -0.05204,0.027 -0.01959,0.006 -0.03797,0.0217 -0.0408,0.0354 -0.0031,0.0162 -0.01959,0.0284 -0.04463,0.0313 -0.02183,0.002 -0.05012,0.0108 -0.06302,0.0189 -0.03271,0.0216 -0.08557,0.0446 -0.138458,0.0614 -0.02462,0.008 -0.04494,0.0189 -0.04494,0.0244 0,0.006 -0.02211,0.0135 -0.04908,0.0189 -0.02686,0.006 -0.04903,0.0135 -0.04903,0.0189 0,0.006 -0.01315,0.0108 -0.0291,0.0108 -0.01595,0 -0.04709,0.0108 -0.06906,0.0216 -0.02857,0.0162 -0.08333,0.0243 -0.191597,0.027 -0.08339,0.002 -0.151609,0.0108 -0.151609,0.0162 0,0.006 0.02742,0.0108 0.06086,0.0108 0.05907,0 0.05983,3.7e-4 0.02519,0.0189 -0.01959,0.0108 -0.06716,0.0243 -0.105802,0.0309 -0.03864,0.006 -0.09973,0.0189 -0.135687,0.0243 -0.03598,0.008 -0.09343,0.0135 -0.127741,0.0135 -0.03428,1.3e-4 -0.07645,0.006 -0.09366,0.0135 -0.03954,0.0162 -5.725942,0.027 -7.207042,0.0108 z m -0.974235,-0.14653 c 0.02183,-0.006 0.02211,-0.0108 0.0022,-0.0243 -0.01567,-0.0135 -0.05821,-0.0162 -0.134428,-0.0162 l -0.111483,0.001 0.09534,0.0135 c 0.05241,0.008 0.08982,0.0189 0.08308,0.0243 -0.01455,0.0108 0.02902,0.0135 0.065,0.002 z m 8.28008,-0.0108 c 0,-0.0189 -0.04547,-0.0243 -0.110139,-0.0108 -0.05537,0.0108 -0.02714,0.03 0.04575,0.03 0.04634,0 0.06441,-0.006 0.06441,-0.0189 z m 0.200355,-0.0436 c 0.02742,-0.008 0.01847,-0.0108 -0.03694,-0.008 -0.04043,0.002 -0.09788,0.002 -0.127629,0.006 -0.03509,0.001 -0.05012,0.006 -0.04287,0.0162 0.01203,0.0162 0.14008,0.008 0.207406,-0.0135 z m -8.760633,0.002 c -0.01119,-0.002 -0.0296,-0.002 -0.04088,0 -0.01119,0.002 -0.0022,0.006 0.02043,0.006 0.02239,0 0.03167,-0.002 0.02042,-0.006 z m -0.155275,-0.0327 c -0.0036,-0.008 -0.02099,-0.0189 -0.03814,-0.0189 -0.01735,-0.002 -0.08104,-0.0189 -0.141759,-0.037 -0.06072,-0.0189 -0.115288,-0.0292 -0.121221,-0.0244 -0.01763,0.0135 0.0022,0.0217 0.144922,0.06 0.156646,0.0416 0.165377,0.043 0.156199,0.0216 z m 9.161416,-0.0108 c 0.108265,-0.0281 0.170525,-0.0587 0.08694,-0.0424 -0.03503,0.006 -0.04422,0.006 -0.03518,-0.006 0.01035,-0.0135 -0.162271,0.0516 -0.184881,0.0692 -0.01651,0.0135 0.03607,0.006 0.133113,-0.0217 z m -0.126229,-0.006 c 0.01735,-0.0108 0.02378,-0.0189 0.01455,-0.0189 -0.0095,-2.4e-4 -0.03154,0.008 -0.04902,0.0189 -0.01735,0.0108 -0.02378,0.0189 -0.01455,0.0189 0.0095,2.4e-4 0.03154,-0.008 0.04908,-0.0189 z m -9.366122,-0.0703 c -0.0053,-0.008 -0.02631,-0.0189 -0.04589,-0.0273 -0.03562,-0.0135 -0.03562,-0.0135 -0.0045,0.0135 0.03126,0.0273 0.06951,0.0384 0.05065,0.0135 z m 9.658397,-0.008 c 0.04035,-0.0243 0.01371,-0.0243 -0.0399,3.9e-4 -0.02378,0.0108 -0.0305,0.0189 -0.01623,0.0189 0.01343,3e-5 0.03879,-0.008 0.05627,-0.0189 z m 0.08641,-6.1e-4 c -0.0053,-0.002 -0.01959,-0.006 -0.03131,-10e-4 -0.01315,0.002 -0.0092,0.008 0.0098,0.008 0.01735,3.8e-4 0.02686,-0.002 0.02155,-0.006 z m -9.957345,-0.0189 c -0.0059,-0.008 -0.01735,-0.0135 -0.02631,-0.0135 -0.009,0 -0.01176,0.006 -0.0059,0.0135 0.0059,0.008 0.01735,0.0135 0.02658,0.0135 0.009,0 0.01176,-0.006 0.0059,-0.0135 z m 10.133384,-0.0381 c 0.0059,-0.008 0.0022,-0.0135 -0.0059,-0.0135 -0.009,0 -0.02099,0.006 -0.02631,0.0135 -0.0059,0.008 -0.0022,0.0135 0.0059,0.0135 0.009,0 0.02099,-0.006 0.02631,-0.0135 z m -10.23962,-0.008 c 0,-0.002 -0.02211,-0.0244 -0.04894,-0.0476 -0.05537,-0.046 -0.06693,-0.03 -0.01511,0.0216 0.03072,0.0303 0.06419,0.0441 0.06419,0.027 z m 10.182418,-0.0189 c 0,-0.008 -0.0072,-0.008 -0.01623,-0.006 -0.009,0.006 -0.01623,0.0135 -0.01623,0.0216 0,0.008 0.0072,0.008 0.01623,0.006 0.009,-0.006 0.01623,-0.0135 0.01623,-0.0216 z m 0.130763,-0.0135 c 0,-0.008 -0.0072,-0.008 -0.01623,-0.006 -0.009,0.006 -0.01623,0.0135 -0.01623,0.0217 0,0.008 0.0072,0.008 0.01623,0.006 0.009,-0.006 0.01623,-0.0135 0.01623,-0.0217 z m -0.05821,-0.0243 c -0.0067,-0.008 -0.01819,-0.008 -0.03316,0.002 -0.03487,0.0217 -0.0277,0.04 0.01007,0.0243 0.01819,-0.008 0.02857,-0.0189 0.02295,-0.027 z m 0.156254,-0.0273 c 0,-0.008 -0.01091,-0.006 -0.02462,0.002 -0.01343,0.008 -0.02462,0.0217 -0.02462,0.0284 0,0.008 0.01091,0.006 0.02462,-0.002 0.01343,-0.008 0.02462,-0.0217 0.02462,-0.0286 z m -0.05213,-0.0216 c 0.0045,-0.0108 -0.0081,-0.008 -0.0359,0.006 -0.0235,0.0108 -0.04279,0.0276 -0.04279,0.0346 0,0.0162 0.06959,-0.0189 0.07863,-0.0403 z m 0.110811,-0.0108 c -0.01148,-0.008 -0.04234,0.008 -0.04234,0.0244 0,0.008 0.0095,0.008 0.02491,-0.002 0.01371,-0.008 0.02155,-0.0189 0.01735,-0.0216 z m -0.0587,0.002 c 0,-0.002 -0.0072,-0.008 -0.01623,-0.0135 -0.009,-0.006 -0.01623,-0.002 -0.01623,0.006 0,0.008 0.0072,0.0135 0.01623,0.0135 0.009,0 0.01623,-0.002 0.01623,-0.006 z m 0.03271,-0.0324 c 0,-0.008 -0.0031,-0.0135 -0.0072,-0.0135 -0.0045,0 -0.01176,0.006 -0.01735,0.0135 -0.0059,0.008 -0.0022,0.0135 0.0072,0.0135 0.0095,0 0.01735,-0.006 0.01735,-0.0135 z m 0.147412,-0.0319 c 0.03154,-0.0297 0.009,-0.0352 -0.0249,-0.006 -0.01623,0.0135 -0.02211,0.0243 -0.01287,0.0243 0.0092,0 0.02603,-0.008 0.03756,-0.0189 z m -0.04058,-0.0189 c 0.01763,-0.0216 -0.0022,-0.027 -0.0249,-0.006 -0.01287,0.0108 -0.01427,0.0189 -0.0031,0.0189 0.0095,0 0.02211,-0.006 0.02813,-0.0135 z m -0.02519,0.20411 c 0,-0.008 0.0078,-0.0135 0.01735,-0.0135 0.0095,0 0.01287,0.006 0.0072,0.0135 -0.0059,0.008 -0.01343,0.0135 -0.01735,0.0135 -0.0045,0 -0.0072,-0.006 -0.0072,-0.0135 z"
       id="path3474" />
    <path
       style="fill:#ffffff;stroke-width:1.43545"
       d="M 4.6257374,21.450312 C 0.07169197,18.260534 0.68797681,15.138688 7.1237426,8.7964423 11.73615,4.2510595 13.442054,3.4086621 16.486803,4.172845 c 2.3586,0.5919711 4.871465,0.1300663 6.856555,-1.2603447 1.723415,-1.2071272 4.51752,-2.19477672 6.209123,-2.19477672 3.689042,0 10.640039,5.16254252 10.640039,7.90241292 0,1.0737399 1.23223,2.3433485 2.738287,2.8213525 5.649503,1.793083 5.100688,8.646203 -0.874335,10.917903 -6.098994,2.318834 -33.7821429,1.646492 -37.4307346,-0.90908 z"
       id="path2689"
       transform="matrix(0.26458333,0,0,0.26458333,85.012737,114.25852)" />
  </g>
</svg>
