<?xml version="1.0" encoding="UTF-8" standalone="no"?>
<!-- Created with Inkscape (http://www.inkscape.org/) -->

<svg
   width="13.420517mm"
   height="10.020156mm"
   viewBox="0 0 13.420517 10.020156"
   version="1.1"
   id="svg306"
   inkscape:version="1.1.2 (0a00cf5339, 2022-02-04)"
   sodipodi:docname="deszcz.svg"
   xmlns:inkscape="http://www.inkscape.org/namespaces/inkscape"
   xmlns:sodipodi="http://sodipodi.sourceforge.net/DTD/sodipodi-0.dtd"
   xmlns="http://www.w3.org/2000/svg"
   xmlns:svg="http://www.w3.org/2000/svg">
  <sodipodi:namedview
     id="namedview308"
     pagecolor="#ffffff"
     bordercolor="#666666"
     borderopacity="1.0"
     inkscape:pageshadow="2"
     inkscape:pageopacity="0.0"
     inkscape:pagecheckerboard="0"
     inkscape:document-units="mm"
     showgrid="false"
     fit-margin-top="0"
     fit-margin-left="0"
     fit-margin-right="0"
     fit-margin-bottom="0"
     inkscape:zoom="0.69664703"
     inkscape:cx="0.71772358"
     inkscape:cy="-15.072195"
     inkscape:window-width="1846"
     inkscape:window-height="1016"
     inkscape:window-x="0"
     inkscape:window-y="0"
     inkscape:window-maximized="1"
     inkscape:current-layer="layer1" />
  <defs
     id="defs303" />
  <g
     inkscape:label="Warstwa 1"
     inkscape:groupmode="layer"
     id="layer1"
     transform="translate(-104.9224,-122.09227)">
    <rect
       style="fill:#808080;stroke-width:0.11924"
       id="rect9146-67-5"
       width="1.1325043"
       height="2.7403386"
       x="177.02338"
       y="67.985626"
       transform="matrix(0.88384715,0.46777581,-0.72871697,0.68481499,0,0)" />
    <rect
       style="fill:#808080;stroke-width:0.11924"
       id="rect9146-67"
       width="1.1325043"
       height="2.7403386"
       x="180.73796"
       y="65.931404"
       transform="matrix(0.88384715,0.46777581,-0.72871697,0.68481499,0,0)" />
    <rect
       style="fill:#808080;stroke-width:0.11924"
       id="rect9146-67-5-6"
       width="1.1325043"
       height="2.7403386"
       x="183.86642"
       y="63.809608"
       transform="matrix(0.88384715,0.46777581,-0.72871697,0.68481499,0,0)" />
    <path
       style="fill:#808080;stroke-width:0.0144088"
       d="m 108.94995,128.5727 c -0.57083,-0.006 -1.08935,-0.0162 -1.15227,-0.0217 -0.19207,-0.0217 -0.37701,-0.0692 -0.35805,-0.093 0.005,-0.006 -0.012,-0.0108 -0.0369,-0.0108 -0.0657,0 -0.25604,-0.0592 -0.39492,-0.123 -0.0659,-0.0303 -0.12352,-0.0549 -0.12799,-0.0549 -0.0286,0 -0.29863,-0.17004 -0.41808,-0.2633 -0.14721,-0.1149 -0.33925,-0.30992 -0.33925,-0.34463 0,-0.0108 0.0382,0.0135 0.085,0.0559 0.10351,0.0919 0.2196,0.17977 0.27459,0.20708 0.0224,0.0108 0.085,0.0454 0.13893,0.076 0.0539,0.0305 0.14417,0.0716 0.20056,0.0916 0.0564,0.0189 0.12371,0.0479 0.14962,0.0622 0.026,0.0135 0.0534,0.027 0.0609,0.027 0.0154,-8e-5 -0.0781,-0.0622 -0.0945,-0.063 -0.0145,-6.1e-4 -0.16734,-0.0735 -0.28392,-0.13543 -0.0539,-0.0287 -0.12172,-0.0614 -0.1506,-0.073 -0.0379,-0.0162 -0.0497,-0.027 -0.0421,-0.0422 0.008,-0.0162 0.004,-0.0189 -0.016,-0.0135 -0.0187,0.006 -0.0378,-0.008 -0.0667,-0.0454 -0.0221,-0.0292 -0.0813,-0.0881 -0.13121,-0.13112 -0.0499,-0.0427 -0.0868,-0.0808 -0.082,-0.0846 0.0218,-0.0162 -0.10096,-0.16166 -0.13737,-0.16166 -0.0143,0 -0.0193,-0.008 -0.0134,-0.0189 0.005,-0.0108 -0.0207,-0.0665 -0.0577,-0.12382 -0.14942,-0.23087 -0.20212,-0.41453 -0.21837,-0.76091 -0.0106,-0.22763 0.0193,-0.41356 0.1035,-0.63894 0.0764,-0.20492 0.24446,-0.46265 0.37924,-0.58166 0.0583,-0.0514 0.0755,-0.0592 0.14327,-0.0633 l 0.077,-0.006 -0.0776,-0.002 c -0.0426,-10e-4 -0.0776,-0.008 -0.0776,-0.0135 0,-0.0244 0.34423,-0.27272 0.47781,-0.34336 0.14741,-0.0778 0.58073,-0.25492 0.6242,-0.25492 0.0404,0 0.056,-0.0397 0.0756,-0.19194 0.0104,-0.0797 0.0241,-0.15058 0.0308,-0.15734 0.007,-0.008 0.0137,-0.0408 0.0157,-0.0749 0.002,-0.0344 0.0187,-0.097 0.0376,-0.13976 0.0456,-0.10354 0.21527,-0.36677 0.28733,-0.44584 0.0738,-0.0811 0.39017,-0.33267 0.44822,-0.35658 0.0271,-0.0108 0.093,-0.0189 0.17162,-0.0189 0.0701,-1.1e-4 0.13851,-0.006 0.152,-0.0135 0.0171,-0.008 -0.0185,-0.0135 -0.11439,-0.0135 l -0.13894,-3.8e-4 0.0409,-0.027 c 0.064,-0.0403 0.42177,-0.17383 0.53936,-0.2014 0.31848,-0.0746 0.72132,-0.0876 1.02015,-0.0327 0.28926,0.0532 0.44917,0.10272 0.67049,0.20788 l 0.0971,0.0463 -0.12161,0.006 c -0.11154,0.006 -0.11618,0.008 -0.0562,0.0162 0.095,0.0135 0.43705,0.0108 0.4658,-0.002 0.021,-0.0108 0.0204,-0.0135 -0.005,-0.0135 -0.0157,-1e-4 -0.0286,-0.002 -0.0286,-0.008 0,-0.002 0.0333,-0.0462 0.0741,-0.0941 0.14504,-0.17113 0.59399,-0.50545 0.74795,-0.55701 0.0252,-0.008 0.0729,-0.0162 0.10622,-0.0162 l 0.0605,-0.002 -0.0654,-0.008 -0.0654,-0.008 0.0572,-0.0335 c 0.0727,-0.0427 0.42409,-0.17924 0.58667,-0.22816 0.29436,-0.0884 0.76998,-0.16383 1.03068,-0.16383 0.22725,0 0.68552,0.0668 0.96824,0.14084 0.12536,0.033 0.61019,0.216 0.6669,0.25196 l 0.0409,0.027 -0.13076,0.002 c -0.15491,0.002 -0.0979,0.0189 0.0714,0.0217 0.093,0.001 0.11294,0.006 0.18757,0.0492 0.12572,0.0716 0.3192,0.20438 0.41236,0.28275 0.13222,0.11138 0.33038,0.3244 0.31366,0.3374 -0.004,0.002 -0.0353,0.0108 -0.0706,0.0162 l -0.0644,0.0108 0.0768,0.001 c 0.0666,0.001 0.0821,0.006 0.11686,0.0427 0.13498,0.13922 0.29221,0.4616 0.37619,0.77167 0.0143,0.0524 0.0306,0.17815 0.0363,0.27931 0.006,0.1011 0.0168,0.19707 0.0246,0.21275 0.008,0.0162 0.0465,0.0403 0.0921,0.0563 0.30572,0.10732 0.55683,0.2087 0.68177,0.27515 0.1353,0.0719 0.48315,0.32159 0.48315,0.34686 0,0.006 -0.035,0.0108 -0.0776,0.0135 l -0.0776,0.002 0.0839,0.008 c 0.0738,0.006 0.0909,0.0135 0.14285,0.0624 0.0724,0.0676 0.22512,0.27523 0.2882,0.39198 0.0694,0.12841 0.12867,0.29618 0.1651,0.46755 0.0266,0.12489 0.0307,0.18788 0.0232,0.34933 -0.0207,0.43929 -0.0768,0.5939 -0.33772,0.93006 -0.0527,0.0679 -0.0958,0.13003 -0.0958,0.13841 0,0.0327 -0.33143,0.32032 -0.41863,0.36311 -0.0281,0.0135 -0.0283,0.0162 -0.002,0.0162 0.0157,3.7e-4 0.0286,0.008 0.0286,0.0135 0,0.008 0.0227,-0.002 0.0503,-0.0216 0.10169,-0.0727 0.22758,-0.17004 0.22758,-0.17571 0,-0.002 0.0258,-0.027 0.0572,-0.0516 0.0315,-0.0243 0.0572,-0.0497 0.0572,-0.0543 0,-0.0135 0.081,-0.0781 0.0972,-0.0781 0.0218,0 -7.3e-4,0.0522 -0.026,0.0595 -0.0123,0.002 -0.0221,0.0162 -0.0221,0.0292 0,0.0135 -0.0109,0.0295 -0.0246,0.0384 -0.0134,0.008 -0.0246,0.0243 -0.0246,0.0332 0,0.0108 -0.0109,0.0162 -0.0246,0.0162 -0.0134,0 -0.0246,0.008 -0.0246,0.0189 0,0.0108 -0.009,0.0217 -0.0204,0.0287 -0.0238,0.0108 -0.0582,0.0516 -0.0718,0.0833 -0.005,0.0135 -0.0199,0.0216 -0.0322,0.0216 -0.0123,0 -0.0227,0.008 -0.0227,0.0189 0,0.0108 -0.0109,0.0189 -0.0246,0.0189 -0.0134,0 -0.0246,0.008 -0.0246,0.0189 0,0.0108 -0.0109,0.0189 -0.0246,0.0189 -0.0134,0 -0.0246,0.008 -0.0246,0.0189 0,0.0108 -0.0109,0.0189 -0.0246,0.0189 -0.0134,0 -0.0246,0.008 -0.0246,0.0189 0,0.0108 -0.0115,0.0189 -0.0252,0.0189 -0.0193,0 -0.0215,0.006 -0.01,0.0216 0.0115,0.0162 0.007,0.0316 -0.0173,0.0579 -0.0182,0.0189 -0.0368,0.033 -0.0414,0.0295 -0.004,-0.002 0.005,-0.0162 0.0193,-0.0281 0.0224,-0.0162 0.0235,-0.0244 0.006,-0.0319 -0.0131,-0.006 -0.0281,-0.002 -0.038,0.006 -0.009,0.008 -0.0325,0.0216 -0.052,0.027 -0.0196,0.006 -0.038,0.0217 -0.0408,0.0354 -0.003,0.0162 -0.0196,0.0284 -0.0446,0.0313 -0.0218,0.002 -0.0501,0.0108 -0.063,0.0189 -0.0327,0.0216 -0.0856,0.0446 -0.13845,0.0614 -0.0246,0.008 -0.0449,0.0189 -0.0449,0.0244 0,0.006 -0.0221,0.0135 -0.0491,0.0189 -0.0269,0.006 -0.049,0.0135 -0.049,0.0189 0,0.006 -0.0132,0.0108 -0.0291,0.0108 -0.016,0 -0.0471,0.0108 -0.0691,0.0216 -0.0286,0.0162 -0.0833,0.0243 -0.1916,0.027 -0.0834,0.002 -0.15161,0.0108 -0.15161,0.0162 0,0.006 0.0274,0.0108 0.0609,0.0108 0.0591,0 0.0598,3.7e-4 0.0252,0.0189 -0.0196,0.0108 -0.0672,0.0243 -0.1058,0.0309 -0.0386,0.006 -0.0997,0.0189 -0.13569,0.0243 -0.036,0.008 -0.0934,0.0135 -0.12774,0.0135 -0.0343,1.3e-4 -0.0764,0.006 -0.0937,0.0135 -0.0395,0.0162 -5.72594,0.027 -7.20704,0.0108 z m -0.97423,-0.14653 c 0.0218,-0.006 0.0221,-0.0108 0.002,-0.0243 -0.0157,-0.0135 -0.0582,-0.0162 -0.13443,-0.0162 l -0.11149,0.001 0.0953,0.0135 c 0.0524,0.008 0.0898,0.0189 0.0831,0.0243 -0.0145,0.0108 0.029,0.0135 0.065,0.002 z m 8.28008,-0.0108 c 0,-0.0189 -0.0455,-0.0243 -0.11014,-0.0108 -0.0554,0.0108 -0.0271,0.03 0.0457,0.03 0.0463,0 0.0644,-0.006 0.0644,-0.0189 z m 0.20035,-0.0436 c 0.0274,-0.008 0.0185,-0.0108 -0.0369,-0.008 -0.0404,0.002 -0.0979,0.002 -0.12763,0.006 -0.0351,0.001 -0.0501,0.006 -0.0429,0.0162 0.012,0.0162 0.14008,0.008 0.20741,-0.0135 z m -8.76063,0.002 c -0.0112,-0.002 -0.0296,-0.002 -0.0409,0 -0.0112,0.002 -0.002,0.006 0.0204,0.006 0.0224,0 0.0317,-0.002 0.0204,-0.006 z m -0.15528,-0.0327 c -0.004,-0.008 -0.021,-0.0189 -0.0381,-0.0189 -0.0173,-0.002 -0.081,-0.0189 -0.14176,-0.037 -0.0607,-0.0189 -0.11528,-0.0292 -0.12122,-0.0244 -0.0176,0.0135 0.002,0.0217 0.14492,0.06 0.15665,0.0416 0.16538,0.043 0.1562,0.0216 z m 9.16142,-0.0108 c 0.10826,-0.0281 0.17052,-0.0587 0.0869,-0.0424 -0.035,0.006 -0.0442,0.006 -0.0352,-0.006 0.0103,-0.0135 -0.16227,0.0516 -0.18488,0.0692 -0.0165,0.0135 0.0361,0.006 0.13311,-0.0217 z m -0.12623,-0.006 c 0.0174,-0.0108 0.0238,-0.0189 0.0145,-0.0189 -0.01,-2.4e-4 -0.0315,0.008 -0.049,0.0189 -0.0173,0.0108 -0.0238,0.0189 -0.0145,0.0189 0.01,2.4e-4 0.0315,-0.008 0.0491,-0.0189 z m -9.36612,-0.0703 c -0.005,-0.008 -0.0263,-0.0189 -0.0459,-0.0273 -0.0356,-0.0135 -0.0356,-0.0135 -0.005,0.0135 0.0313,0.0273 0.0695,0.0384 0.0507,0.0135 z m 9.65839,-0.008 c 0.0404,-0.0243 0.0137,-0.0243 -0.0399,3.9e-4 -0.0238,0.0108 -0.0305,0.0189 -0.0162,0.0189 0.0134,3e-5 0.0388,-0.008 0.0563,-0.0189 z m 0.0864,-6.1e-4 c -0.005,-0.002 -0.0196,-0.006 -0.0313,-0.001 -0.0131,0.002 -0.009,0.008 0.01,0.008 0.0174,3.8e-4 0.0269,-0.002 0.0216,-0.006 z m -9.95734,-0.0189 c -0.006,-0.008 -0.0173,-0.0135 -0.0263,-0.0135 -0.009,0 -0.0118,0.006 -0.006,0.0135 0.006,0.008 0.0173,0.0135 0.0266,0.0135 0.009,0 0.0118,-0.006 0.006,-0.0135 z m 10.13338,-0.0381 c 0.006,-0.008 0.002,-0.0135 -0.006,-0.0135 -0.009,0 -0.021,0.006 -0.0263,0.0135 -0.006,0.008 -0.002,0.0135 0.006,0.0135 0.009,0 0.021,-0.006 0.0263,-0.0135 z m -10.23962,-0.008 c 0,-0.002 -0.0221,-0.0244 -0.0489,-0.0476 -0.0554,-0.046 -0.0669,-0.03 -0.0151,0.0216 0.0307,0.0303 0.0642,0.0441 0.0642,0.027 z m 10.18242,-0.0189 c 0,-0.008 -0.007,-0.008 -0.0162,-0.006 -0.009,0.006 -0.0162,0.0135 -0.0162,0.0216 0,0.008 0.007,0.008 0.0162,0.006 0.009,-0.006 0.0162,-0.0135 0.0162,-0.0216 z m 0.13076,-0.0135 c 0,-0.008 -0.007,-0.008 -0.0162,-0.006 -0.009,0.006 -0.0162,0.0135 -0.0162,0.0217 0,0.008 0.007,0.008 0.0162,0.006 0.009,-0.006 0.0162,-0.0135 0.0162,-0.0217 z m -0.0582,-0.0243 c -0.007,-0.008 -0.0182,-0.008 -0.0332,0.002 -0.0349,0.0217 -0.0277,0.04 0.0101,0.0243 0.0182,-0.008 0.0286,-0.0189 0.0229,-0.027 z m 0.15626,-0.0273 c 0,-0.008 -0.0109,-0.006 -0.0246,0.002 -0.0134,0.008 -0.0246,0.0217 -0.0246,0.0284 0,0.008 0.0109,0.006 0.0246,-0.002 0.0134,-0.008 0.0246,-0.0217 0.0246,-0.0286 z m -0.0521,-0.0216 c 0.005,-0.0108 -0.008,-0.008 -0.0359,0.006 -0.0235,0.0108 -0.0428,0.0276 -0.0428,0.0346 0,0.0162 0.0696,-0.0189 0.0786,-0.0403 z m 0.11081,-0.0108 c -0.0115,-0.008 -0.0423,0.008 -0.0423,0.0244 0,0.008 0.01,0.008 0.0249,-0.002 0.0137,-0.008 0.0215,-0.0189 0.0173,-0.0216 z m -0.0587,0.002 c 0,-0.002 -0.007,-0.008 -0.0162,-0.0135 -0.009,-0.006 -0.0162,-0.002 -0.0162,0.006 0,0.008 0.007,0.0135 0.0162,0.0135 0.009,0 0.0162,-0.002 0.0162,-0.006 z m 0.0327,-0.0324 c 0,-0.008 -0.003,-0.0135 -0.007,-0.0135 -0.005,0 -0.0118,0.006 -0.0174,0.0135 -0.006,0.008 -0.002,0.0135 0.007,0.0135 0.01,0 0.0174,-0.006 0.0174,-0.0135 z m 0.14741,-0.0319 c 0.0315,-0.0297 0.009,-0.0352 -0.0249,-0.006 -0.0162,0.0135 -0.0221,0.0243 -0.0129,0.0243 0.009,0 0.026,-0.008 0.0376,-0.0189 z m -0.0406,-0.0189 c 0.0176,-0.0216 -0.002,-0.027 -0.0249,-0.006 -0.0129,0.0108 -0.0143,0.0189 -0.003,0.0189 0.01,0 0.0221,-0.006 0.0281,-0.0135 z m -0.0252,0.20411 c 0,-0.008 0.008,-0.0135 0.0174,-0.0135 0.009,0 0.0129,0.006 0.007,0.0135 -0.006,0.008 -0.0134,0.0135 -0.0174,0.0135 -0.004,0 -0.007,-0.006 -0.007,-0.0135 z"
       id="path3474-3" />
    <path
       style="fill:#808080;stroke-width:1.43545"
       d="M 7.4966317,21.450312 C 2.9425863,18.260534 3.5588711,15.138688 9.9946369,8.7964423 14.607044,4.2510595 16.312948,3.4086621 19.357697,4.172845 c 2.3586,0.5919711 4.871465,0.1300663 6.856555,-1.2603447 1.723415,-1.2071272 4.51752,-2.19477672 6.209123,-2.19477672 3.749705,0 10.64004,5.18012892 10.64004,7.99914432 0,1.1269422 0.946199,2.0489861 2.102666,2.0489861 2.746395,0 5.314378,4.882056 4.155925,7.900933 -1.472347,3.836877 -6.947076,5.018091 -23.258008,5.018091 -11.594231,0 -16.161905,-0.549716 -18.5673663,-2.234566 z"
       id="path2978"
       transform="matrix(0.26458333,0,0,0.26458333,104.9224,122.09227)" />
    <path
       style="fill:#808080;stroke-width:1.43545"
       d="M 7.4966317,21.450312 C 2.9761791,18.284064 3.5531611,15.144048 9.7831708,9.0066469 13.746545,5.1021878 16.355138,3.7034505 19.448285,3.8241754 c 2.330126,0.090944 6.360673,-0.7217577 8.956773,-1.8060043 4.070395,-1.6999794 5.256021,-1.67332365 8.612683,0.1936339 2.140876,1.1907452 4.53014,3.6025293 5.309473,5.35952 0.779335,1.7569908 2.209997,3.194529 3.179253,3.194529 2.465036,0 4.907,5.056635 3.815539,7.900933 -1.472347,3.836877 -6.947076,5.018091 -23.258008,5.018091 -11.594231,0 -16.161905,-0.549716 -18.5673663,-2.234566 z"
       id="path3302"
       transform="matrix(0.26458333,0,0,0.26458333,104.9224,122.09227)" />
    <path
       style="fill:#808080;stroke-width:1.43545"
       d="M 7.4966317,21.450312 C 2.9466671,18.263392 3.5295454,14.96593 9.6892683,9.0461175 13.418621,5.4620158 16.836008,3.6336859 20.813984,3.0943032 23.971968,2.666105 28.648366,1.8838778 31.205981,1.3560207 35.435456,0.48311402 36.514764,1.0688641 43.135207,7.8301164 55.081715,20.030712 51.303303,23.630581 26.516306,23.663717 14.486317,23.6798 9.9211833,23.148533 7.4966317,21.450312 Z"
       id="path3341"
       transform="matrix(0.26458333,0,0,0.26458333,104.9224,122.09227)" />
    <path
       style="fill:#808080;stroke-width:1.43545"
       d="M 7.4966317,21.450312 C 5.7419721,20.221301 4.3063415,18.091565 4.3063415,16.717568 4.3063415,12.439206 14.446016,4.0389629 20.813984,3.0417626 23.971968,2.547234 28.648366,1.7496934 31.205981,1.2694502 35.395697,0.48274711 36.577001,1.1324238 43.135207,7.8301164 55.081715,20.030712 51.303303,23.630581 26.516306,23.663717 14.486317,23.6798 9.9211833,23.148533 7.4966317,21.450312 Z"
       id="path3380"
       transform="matrix(0.26458333,0,0,0.26458333,104.9224,122.09227)" />
    <path
       style="fill:#666666;stroke-width:1.43545"
       d="M 7.4966317,21.450312 C 5.7419721,20.221301 4.3063415,18.091565 4.3063415,16.717568 4.3063415,12.439206 14.446016,4.0389629 20.813984,3.0417626 23.971968,2.547234 28.648366,1.7496934 31.205981,1.2694502 35.395697,0.48274711 36.577001,1.1324238 43.135207,7.8301164 55.081715,20.030712 51.303303,23.630581 26.516306,23.663717 14.486317,23.6798 9.9211833,23.148533 7.4966317,21.450312 Z"
       id="path3419"
       transform="matrix(0.26458333,0,0,0.26458333,104.9224,122.09227)" />
  </g>
</svg>
