<?xml version="1.0" encoding="UTF-8" standalone="no"?>
<!-- Created with Inkscape (http://www.inkscape.org/) -->

<svg
   version="1.1"
   id="svg240"
   width="31.39966"
   height="29.939455"
   viewBox="0 0 31.399663 29.939454"
   sodipodi:docname="slonce.svg"
   inkscape:version="1.1.2 (0a00cf5339, 2022-02-04)"
   xmlns:inkscape="http://www.inkscape.org/namespaces/inkscape"
   xmlns:sodipodi="http://sodipodi.sourceforge.net/DTD/sodipodi-0.dtd"
   xmlns="http://www.w3.org/2000/svg"
   xmlns:svg="http://www.w3.org/2000/svg">
  <defs
     id="defs244" />
  <sodipodi:namedview
     id="namedview242"
     pagecolor="#ffffff"
     bordercolor="#666666"
     borderopacity="1.0"
     inkscape:pageshadow="2"
     inkscape:pageopacity="0.0"
     inkscape:pagecheckerboard="0"
     showgrid="false"
     fit-margin-top="0"
     fit-margin-left="0"
     fit-margin-right="0"
     fit-margin-bottom="0"
     inkscape:zoom="2.1722222"
     inkscape:cx="5.7544758"
     inkscape:cy="-25.549872"
     inkscape:window-width="1846"
     inkscape:window-height="1016"
     inkscape:window-x="0"
     inkscape:window-y="0"
     inkscape:window-maximized="1"
     inkscape:current-layer="g246" />
  <g
     inkscape:groupmode="layer"
     inkscape:label="Image"
     id="g246"
     transform="translate(-354.58301,-289.51666)">
    <ellipse
       style="fill:#000000;stroke-width:0.0388803"
       id="path700"
       cx="370.23669"
       cy="304.55878"
       rx="7.327837"
       ry="6.4747458" />
    <path
       style="fill:#000000;stroke-width:0.460358"
       d=""
       id="path1200"
       transform="translate(349.28171,286.97211)" />
    <rect
       style="fill:#000000"
       id="rect1380"
       width="2.3017902"
       height="6.9089675"
       x="369.46732"
       y="289.51666" />
    <rect
       style="fill:#000000;stroke-width:1.0529"
       id="rect1380-3"
       width="2.5517502"
       height="6.9089675"
       x="302.81491"
       y="-385.98267"
       transform="rotate(90)" />
    <rect
       style="fill:#000000"
       id="rect1380-6"
       width="2.3017902"
       height="6.9089675"
       x="369.13644"
       y="312.54715" />
    <rect
       style="fill:#000000;stroke-width:1.0529"
       id="rect1380-3-7"
       width="2.5517502"
       height="6.9089675"
       x="302.69891"
       y="-361.49197"
       transform="rotate(90)" />
    <rect
       style="fill:#000000;stroke-width:1.0529"
       id="rect1380-3-5"
       width="2.5517502"
       height="6.9089675"
       x="-478.54401"
       y="59.316326"
       transform="rotate(-134.41876)" />
    <rect
       style="fill:#000000;stroke-width:1.0529"
       id="rect1380-3-5-3"
       width="2.5517502"
       height="6.9089675"
       x="-477.40292"
       y="36.415321"
       transform="rotate(-134.41876)" />
    <rect
       style="fill:#000000;stroke-width:1.0529"
       id="rect1380-3-5-5"
       width="2.5517502"
       height="6.9089675"
       x="50.34256"
       y="485.20493"
       transform="rotate(-44.41876)" />
    <rect
       style="fill:#000000;stroke-width:1.0529"
       id="rect1380-3-5-6"
       width="2.5517502"
       height="6.9089675"
       x="49.366314"
       y="461.04993"
       transform="rotate(-44.41876)" />
    <path
       style="fill:#ffd42a;stroke-width:0.460358"
       d="M 12.614303,20.529468 C 6.0533387,17.549836 8.3076782,8.9769822 15.652174,8.9769822 c 7.264532,0 9.572453,8.5865058 3.097906,11.5256068 -2.436902,1.106225 -3.746492,1.111961 -6.135777,0.02688 z"
       id="path104"
       transform="translate(354.58301,289.51666)" />
    <path
       style="fill:#ffd42a;stroke-width:0.460358"
       d="m 17.188023,3.4526855 c 0,-1.898977 0.08126,-2.67583127 0.180582,-1.7263428 0.09932,0.9494885 0.09932,2.503197 0,3.4526855 -0.09932,0.9494885 -0.180582,0.1726343 -0.180582,-1.7263427 z"
       id="path143"
       transform="translate(354.58301,289.51666)" />
    <path
       style="fill:#ffd42a;stroke-width:0.460358"
       d="M 22.092601,9.6619941 C 21.557467,9.0171963 21.758971,8.636776 23.622995,6.7727516 25.538861,4.8568861 25.844518,4.7009298 26.465832,5.3222439 27.087146,5.9435579 26.9226,6.2542047 24.935438,8.2114864 22.943034,10.173932 22.64407,10.326473 22.092601,9.6619941 Z"
       id="path219"
       transform="translate(354.58301,289.51666)" />
    <path
       style="fill:#ffd42a;stroke-width:0.460358"
       d=""
       id="path258"
       transform="translate(354.58301,289.51666)" />
    <path
       style="fill:#ffd42a;stroke-width:0.460358"
       d="m 24.859335,14.501279 c 0,-0.833029 0.306906,-0.920716 3.222507,-0.920716 2.915601,0 3.222506,0.08769 3.222506,0.920716 0,0.833029 -0.306905,0.920716 -3.222506,0.920716 -2.915601,0 -3.222507,-0.08769 -3.222507,-0.920716 z"
       id="path297"
       transform="translate(354.58301,289.51666)" />
    <path
       style="fill:#ffd42a;stroke-width:0.460358"
       d="m 23.499653,23.960416 c -1.735883,-1.768736 -1.928029,-2.150681 -1.401257,-2.785402 0.543718,-0.65514 0.852456,-0.497255 2.82297,1.443629 1.697856,1.672326 2.095465,2.320217 1.709396,2.785402 -0.73816,0.889428 -0.926701,0.8025 -3.131109,-1.443629 z"
       id="path336"
       transform="translate(354.58301,289.51666)" />
    <path
       style="fill:#ffd42a;stroke-width:0.460358"
       d="m 16.727665,26.470589 c 0,-1.898977 0.08126,-2.675832 0.180581,-1.726343 0.09932,0.949488 0.09932,2.503197 0,3.452685 -0.09932,0.949489 -0.180581,0.172635 -0.180581,-1.726342 z"
       id="path375"
       transform="translate(354.58301,289.51666)" />
    <path
       style="fill:#ffd42a;stroke-width:0.460358"
       d="M 5.0593532,24.85381 C 4.5242187,24.209012 4.7257224,23.828592 6.5897469,21.964568 8.5056124,20.048702 8.8112699,19.892746 9.4325838,20.51406 10.053898,21.135374 9.889352,21.446021 7.90219,23.403302 5.9097854,25.365748 5.6108216,25.518289 5.0593532,24.85381 Z"
       id="path414"
       transform="translate(354.58301,289.51666)" />
    <path
       style="fill:#ffd42a;stroke-width:0.460358"
       d="m 14.731458,26.470589 c 0,-2.915602 0.08769,-3.222507 0.920716,-3.222507 0.833029,0 0.920716,0.306905 0.920716,3.222507 0,2.9156 -0.08769,3.222506 -0.920716,3.222506 -0.833029,0 -0.920716,-0.306906 -0.920716,-3.222506 z"
       id="path453"
       transform="translate(354.58301,289.51666)" />
    <path
       style="fill:#ffd42a;stroke-width:0.460358"
       d="m 0,14.501279 c 0,-0.838875 0.30690539,-0.920716 3.4526855,-0.920716 3.1457799,0 3.4526854,0.08184 3.4526854,0.920716 0,0.838875 -0.3069055,0.920716 -3.4526854,0.920716 C 0.30690539,15.421995 0,15.340154 0,14.501279 Z"
       id="path492"
       transform="translate(354.58301,289.51666)" />
    <path
       style="fill:#ffd42a;stroke-width:0.460358"
       d=""
       id="path531"
       transform="translate(354.58301,289.51666)" />
    <path
       style="fill:#ffd42a;stroke-width:0.460358"
       d=""
       id="path570"
       transform="translate(354.58301,289.51666)" />
    <path
       style="fill:#ffd42a;stroke-width:0.460358"
       d=""
       id="path609"
       transform="translate(354.58301,289.51666)" />
    <path
       style="fill:#ffd42a;stroke-width:0.460358"
       d=""
       id="path648"
       transform="translate(354.58301,289.51666)" />
    <path
       style="fill:#ffd42a;stroke-width:0.460358"
       d="m 15.191816,3.4526855 c 0,-2.91560108 0.08769,-3.22250647 0.920716,-3.22250647 0.833029,0 0.920716,0.30690539 0.920716,3.22250647 0,2.9156009 -0.08769,3.2225064 -0.920716,3.2225064 -0.833029,0 -0.920716,-0.3069055 -0.920716,-3.2225064 z"
       id="path687"
       transform="translate(354.58301,289.51666)" />
    <path
       style="fill:#ffd42a;stroke-width:0.460358"
       d=""
       id="path726"
       transform="translate(354.58301,289.51666)" />
    <path
       style="fill:#ffd42a;stroke-width:0.460358"
       d="M 6.0060468,7.3875258 C 4.2701637,5.6187898 4.078018,5.2368448 4.60479,4.6021234 5.1485072,3.9469842 5.4572458,4.1048689 7.4277593,6.0457524 9.1256157,7.7180784 9.5232251,8.3659697 9.1371555,8.8311546 8.3989957,9.7205829 8.2104552,9.6336544 6.0060468,7.3875258 Z"
       id="path765"
       transform="translate(354.58301,289.51666)" />
  </g>
</svg>
